<?xml version="1.0" encoding="UTF-8" standalone="no"?>
<!-- Generator: Adobe Illustrator 18.0.0, SVG Export Plug-In . SVG Version: 6.00 Build 0)  -->

<svg
   xmlns:dc="http://purl.org/dc/elements/1.1/"
   xmlns:cc="http://creativecommons.org/ns#"
   xmlns:rdf="http://www.w3.org/1999/02/22-rdf-syntax-ns#"
   xmlns:svg="http://www.w3.org/2000/svg"
   xmlns="http://www.w3.org/2000/svg"
   xmlns:sodipodi="http://sodipodi.sourceforge.net/DTD/sodipodi-0.dtd"
   xmlns:inkscape="http://www.inkscape.org/namespaces/inkscape"
   version="1.1"
   id="Capa_1"
   x="0px"
   y="0px"
   viewBox="0 0 60 60"
   style="enable-background:new 0 0 60 60;"
   xml:space="preserve"
   sodipodi:docname="wardrobe.svg"
   inkscape:export-filename="/home/nharrand/Downloads/wardrobe.svg.png"
   inkscape:export-xdpi="96"
   inkscape:export-ydpi="96"
   inkscape:version="0.92.3 (2405546, 2018-03-11)"><metadata
   id="metadata43"><rdf:RDF><cc:Work
       rdf:about=""><dc:format>image/svg+xml</dc:format><dc:type
         rdf:resource="http://purl.org/dc/dcmitype/StillImage" /></cc:Work></rdf:RDF></metadata><defs
   id="defs41" /><sodipodi:namedview
   pagecolor="#ffffff"
   bordercolor="#666666"
   borderopacity="1"
   objecttolerance="10"
   gridtolerance="10"
   guidetolerance="10"
   inkscape:pageopacity="0"
   inkscape:pageshadow="2"
   inkscape:window-width="1250"
   inkscape:window-height="852"
   id="namedview39"
   showgrid="false"
   inkscape:zoom="3.9333333"
   inkscape:cx="-14.364407"
   inkscape:cy="30"
   inkscape:window-x="67"
   inkscape:window-y="0"
   inkscape:window-maximized="0"
   inkscape:current-layer="Capa_1" />
<rect
   style="fill:#aa0000"
   id="rect3924"
   width="75.762711"
   height="75.762711"
   x="-7.8813562"
   y="-7.3728809" /><g
   id="g6">
	<path
   d="M20,32c0.552,0,1-0.447,1-1v-5c0-0.553-0.448-1-1-1s-1,0.447-1,1v5C19,31.553,19.448,32,20,32z"
   id="path2" />
	<path
   d="M59,5.172L48.522,3.185C47.684,1.259,45.823,0,43.687,0H6.313C3.384,0,1,2.384,1,5.313V56h2v4h4.618l2-4h32.764l2,4H49v-4   v-2v-0.051l10,2.307V5.172z M6.382,58H5v-2h2.382L6.382,58z M47,58h-1.382l-1-2H47V58z M41.382,54H10.618H3V5.313   C3,3.486,4.486,2,6.313,2h37.374c1.02,0,1.943,0.461,2.553,1.22c-0.025,0.009-0.047,0.024-0.072,0.034   c-0.06,0.024-0.116,0.054-0.174,0.081c-0.129,0.061-0.254,0.127-0.373,0.203c-0.058,0.036-0.114,0.073-0.169,0.112   c-0.124,0.089-0.24,0.186-0.351,0.289c-0.033,0.031-0.069,0.056-0.1,0.088C44.374,3.394,43.507,3,42.549,3H26h-2H7.451   C5.548,3,4,4.548,4,6.451V53h20h2h18.884L47,53.488V54H41.382z M26,51v-5h18v5H26z M39,16c-0.552,0-1,0.447-1,1v1h-1v-1   c0-0.553-0.448-1-1-1s-1,0.447-1,1v1h-1v-1c0-0.553-0.448-1-1-1s-1,0.447-1,1v1h-1v-1c0-0.553-0.448-1-1-1s-1,0.447-1,1v1h-3v-3h18   v3h-4v-1C40,16.447,39.552,16,39,16z M26,20h3v2c0,0.553,0.448,1,1,1s1-0.447,1-1v-2h1v2c0,0.553,0.448,1,1,1s1-0.447,1-1v-2h1v2   c0,0.553,0.448,1,1,1s1-0.447,1-1v-2h1v2c0,0.553,0.448,1,1,1s1-0.447,1-1v-2h4v24H26V20z M44,13H26V5h16.549   C43.349,5,44,5.651,44,6.451V13z M24,51H6V6.451C6,5.651,6.651,5,7.451,5H24V51z M57,53.743l-8-1.847l0,0l-3-0.692V6.451   c0-0.187,0.037-0.365,0.102-0.529c0.001-0.004,0.002-0.008,0.004-0.012c0.064-0.16,0.158-0.304,0.272-0.43   c0.005-0.006,0.009-0.013,0.014-0.018c0.114-0.122,0.25-0.222,0.399-0.299c0.009-0.005,0.017-0.011,0.027-0.016   c0.15-0.073,0.315-0.118,0.487-0.135c0.011-0.001,0.021-0.004,0.032-0.005l0.323,0.092l0.216,0L57,6.828V53.743z"
   id="path4" />
</g>
<g
   id="g8">
</g>
<g
   id="g10">
</g>
<g
   id="g12">
</g>
<g
   id="g14">
</g>
<g
   id="g16">
</g>
<g
   id="g18">
</g>
<g
   id="g20">
</g>
<g
   id="g22">
</g>
<g
   id="g24">
</g>
<g
   id="g26">
</g>
<g
   id="g28">
</g>
<g
   id="g30">
</g>
<g
   id="g32">
</g>
<g
   id="g34">
</g>
<g
   id="g36">
</g>
<g
   id="g70"
   transform="matrix(0.26271186,0,0,0.26745188,27.457627,27.061189)"><path
     d="M 10.5,6.5 C 8.019,6.5 6,8.519 6,11 c 0,2.481 2.019,4.5 4.5,4.5 2.481,0 4.5,-2.019 4.5,-4.5 0,-2.481 -2.019,-4.5 -4.5,-4.5 z m 0,7 C 9.122,13.5 8,12.379 8,11 8,9.621 9.122,8.5 10.5,8.5 c 1.378,0 2.5,1.121 2.5,2.5 0,1.379 -1.122,2.5 -2.5,2.5 z"
     id="path2-3"
     inkscape:connector-curvature="0" /><circle
     cx="50"
     cy="9.5"
     r="1"
     id="circle4" /><circle
     cx="46"
     cy="9.5"
     r="1"
     id="circle6" /><circle
     cx="52"
     cy="12.5"
     r="1"
     id="circle8" /><circle
     cx="48"
     cy="12.5"
     r="1"
     id="circle10" /><circle
     cx="42"
     cy="9.5"
     r="1"
     id="circle12" /><circle
     cx="44"
     cy="12.5"
     r="1"
     id="circle14" /><circle
     cx="38"
     cy="9.5"
     r="1"
     id="circle16" /><circle
     cx="40"
     cy="12.5"
     r="1"
     id="circle18" /><circle
     cx="34"
     cy="9.5"
     r="1"
     id="circle20" /><circle
     cx="36"
     cy="12.5"
     r="1"
     id="circle22" /><path
     d="M 60,16.892 V 5.108 C 60,2.567 57.933,0.5 55.392,0.5 H 4.608 C 2.067,0.5 0,2.567 0,5.108 V 16.891 C 0,18.36 0.703,19.655 1.777,20.499 0.703,21.344 0,22.64 0,24.108 V 35.891 C 0,37.36 0.703,38.655 1.777,39.499 0.703,40.344 0,41.64 0,43.108 V 54.891 C 0,57.433 2.067,59.5 4.608,59.5 h 50.783 c 2.541,0 4.608,-2.067 4.608,-4.608 V 43.108 c 0,-1.469 -0.703,-2.764 -1.777,-3.608 C 59.297,38.656 60,37.36 60,35.892 V 24.108 C 60,22.639 59.297,21.344 58.223,20.5 59.297,19.656 60,18.36 60,16.892 Z m -2,26.216 v 11.783 c 0,1.438 -1.17,2.608 -2.608,2.608 H 4.608 C 3.17,57.5 2,56.33 2,54.892 V 43.108 C 2,41.67 3.17,40.5 4.608,40.5 H 55.391 C 56.83,40.5 58,41.67 58,43.108 Z m 0,-19 v 11.783 c 0,1.438 -1.17,2.608 -2.608,2.608 H 4.608 C 3.17,38.5 2,37.33 2,35.892 V 24.108 C 2,22.67 3.17,21.5 4.608,21.5 H 55.391 C 56.83,21.5 58,22.67 58,24.108 Z M 4.608,19.5 C 3.17,19.5 2,18.33 2,16.892 V 5.108 C 2,3.67 3.17,2.5 4.608,2.5 H 55.391 C 56.83,2.5 58,3.67 58,5.108 v 11.783 c 0,1.438 -1.17,2.608 -2.608,2.608 H 4.608 Z"
     id="path24"
     inkscape:connector-curvature="0" /><path
     d="M 10.5,34.5 C 12.981,34.5 15,32.481 15,30 15,27.519 12.981,25.5 10.5,25.5 8.019,25.5 6,27.519 6,30 c 0,2.481 2.019,4.5 4.5,4.5 z m 0,-7 c 1.378,0 2.5,1.121 2.5,2.5 0,1.379 -1.122,2.5 -2.5,2.5 C 9.122,32.5 8,31.379 8,30 8,28.621 9.122,27.5 10.5,27.5 Z"
     id="path26"
     inkscape:connector-curvature="0" /><circle
     cx="50"
     cy="28.5"
     r="1"
     id="circle28" /><circle
     cx="46"
     cy="28.5"
     r="1"
     id="circle30" /><circle
     cx="52"
     cy="31.5"
     r="1"
     id="circle32" /><circle
     cx="48"
     cy="31.5"
     r="1"
     id="circle34" /><circle
     cx="42"
     cy="28.5"
     r="1"
     id="circle36" /><circle
     cx="44"
     cy="31.5"
     r="1"
     id="circle38" /><circle
     cx="38"
     cy="28.5"
     r="1"
     id="circle40" /><circle
     cx="40"
     cy="31.5"
     r="1"
     id="circle42" /><circle
     cx="34"
     cy="28.5"
     r="1"
     id="circle44" /><circle
     cx="36"
     cy="31.5"
     r="1"
     id="circle46" /><path
     d="M 10.5,53.5 C 12.981,53.5 15,51.481 15,49 15,46.519 12.981,44.5 10.5,44.5 8.019,44.5 6,46.519 6,49 c 0,2.481 2.019,4.5 4.5,4.5 z m 0,-7 c 1.378,0 2.5,1.121 2.5,2.5 0,1.379 -1.122,2.5 -2.5,2.5 C 9.122,51.5 8,50.379 8,49 8,47.621 9.122,46.5 10.5,46.5 Z"
     id="path48"
     inkscape:connector-curvature="0" /><circle
     cx="50"
     cy="47.5"
     r="1"
     id="circle50" /><circle
     cx="46"
     cy="47.5"
     r="1"
     id="circle52" /><circle
     cx="52"
     cy="50.5"
     r="1"
     id="circle54" /><circle
     cx="48"
     cy="50.5"
     r="1"
     id="circle56" /><circle
     cx="42"
     cy="47.5"
     r="1"
     id="circle58" /><circle
     cx="44"
     cy="50.5"
     r="1"
     id="circle60" /><circle
     cx="38"
     cy="47.5"
     r="1"
     id="circle62" /><circle
     cx="40"
     cy="50.5"
     r="1"
     id="circle64" /><circle
     cx="34"
     cy="47.5"
     r="1"
     id="circle66" /><circle
     cx="36"
     cy="50.5"
     r="1"
     id="circle68" /></g><path
   style="fill:none;stroke:#000000;stroke-width:0.91433161px;stroke-linecap:butt;stroke-linejoin:miter;stroke-opacity:1"
   d="M 30.17808,39.482234 C 52.657879,82.288626 66.866814,51.203032 66.866814,51.203032"
   id="path3826"
   inkscape:connector-curvature="0"
   sodipodi:nodetypes="cc" /><path
   style="fill:none;stroke:#000000;stroke-width:0.91433161px;stroke-linecap:butt;stroke-linejoin:miter;stroke-opacity:1"
   d="M 30.17808,34.389402 C 52.657878,77.195795 66.866813,46.1102 66.866813,46.1102"
   id="path3826-3"
   inkscape:connector-curvature="0"
   sodipodi:nodetypes="cc" /><path
   style="fill:none;stroke:#000000;stroke-width:0.91433161px;stroke-linecap:butt;stroke-linejoin:miter;stroke-opacity:1"
   d="M 30.17808,30.636789 C 52.657878,73.443181 66.866813,42.357586 66.866813,42.357586"
   id="path3826-3-6"
   inkscape:connector-curvature="0"
   sodipodi:nodetypes="cc" /></svg>